<svg width="512" height="511" viewBox="0 0 512 511" fill="none" xmlns="http://www.w3.org/2000/svg">
<g clip-path="url(#clip0)">
<path d="M213.203 140.77C212.828 125.254 206.793 110.547 196.441 99.3086L92.2227 11.6367C88.1211 8.18751 82.0625 8.44533 78.2734 12.2344C74.2422 16.2656 74.2422 22.8047 78.2734 26.836L157.781 106.344C162.656 111.219 162.656 119.125 157.781 124L122.5 159.281C117.625 164.156 109.719 164.156 104.844 159.281L25.3359 79.7735C21.3047 75.7422 14.7656 75.7422 10.7344 79.7735C6.94532 83.5625 6.6836 89.6211 10.1328 93.7227L97.8086 197.941C109.047 208.293 123.754 214.328 139.27 214.703L169.41 214.797C183.336 214.844 196.609 220.703 206.027 230.965L445.746 494.152C457.457 506.824 479.336 505.238 491.535 493.035C503.738 480.836 505.324 458.961 492.652 447.246L229.465 207.527C219.203 198.109 213.344 184.836 213.297 170.91L213.203 140.77Z" fill="#E2E2E2"/>
<path d="M501.281 465.223C501.227 464.703 501.16 464.184 501.082 463.664C500.926 462.629 500.723 461.605 500.465 460.598C500.336 460.094 500.195 459.594 500.039 459.098C498.652 454.637 496.215 450.539 492.652 447.246L229.465 207.527C227.891 206.082 226.43 204.535 225.07 202.918C224.215 201.902 223.387 200.867 222.617 199.789C222.121 199.094 221.641 198.387 221.18 197.664C219.336 194.785 217.793 191.73 216.578 188.543C214.449 182.969 213.316 177 213.297 170.91L213.203 140.766C213.086 135.918 212.418 131.152 211.234 126.539C210.762 124.695 210.207 122.879 209.574 121.09C206.723 113.047 202.266 105.629 196.441 99.3086L92.2227 11.6367C91.707 11.2031 91.1641 10.832 90.6016 10.5156C89.1875 9.72655 87.6328 9.29687 86.0703 9.22265C85.4453 9.1953 84.8164 9.21874 84.1953 9.30468C82.0234 9.59765 79.9336 10.5781 78.2734 12.2383C74.2422 16.2695 74.2422 22.8047 78.2734 26.8398L157.781 106.348C159.305 107.871 160.355 109.691 160.926 111.621C161.152 112.391 161.305 113.18 161.383 113.977C161.457 114.773 161.457 115.574 161.383 116.371C161.27 117.566 160.98 118.746 160.523 119.871C159.914 121.375 159 122.781 157.781 124L146.848 134.937L154.434 141.32C164.785 152.559 170.82 167.266 171.195 182.781C171.195 182.781 171.195 183.102 171.199 183.687C171.262 199.387 180.062 213.531 193.746 221.23C193.758 221.238 193.773 221.246 193.785 221.254C194.059 221.406 194.324 221.57 194.594 221.73C194.992 221.965 195.387 222.203 195.777 222.445C196.051 222.617 196.324 222.793 196.594 222.973C197 223.238 197.402 223.508 197.801 223.785C198.031 223.949 198.262 224.105 198.492 224.27C199.094 224.707 199.691 225.156 200.277 225.621C200.402 225.719 200.52 225.82 200.645 225.922C201.125 226.312 201.605 226.711 202.074 227.125C202.27 227.293 202.461 227.469 202.656 227.641C203.066 228.012 203.473 228.391 203.875 228.777C204.047 228.945 204.223 229.109 204.395 229.281C204.949 229.828 205.496 230.391 206.027 230.969L395.738 439.25L450.641 489.258C454.363 492.699 456.848 497.02 458.203 501.715C460.316 502.324 462.508 502.703 464.727 502.859H464.73C466.191 502.965 467.664 502.969 469.137 502.883C469.18 502.879 469.223 502.875 469.262 502.875C470.715 502.781 472.168 502.602 473.609 502.328C473.66 502.32 473.711 502.309 473.762 502.297C474.418 502.172 475.074 502.023 475.727 501.859C475.801 501.84 475.875 501.824 475.945 501.805C476.648 501.625 477.344 501.422 478.035 501.199C478.047 501.195 478.059 501.191 478.07 501.188C478.711 500.977 479.344 500.746 479.977 500.5C480.105 500.453 480.234 500.402 480.363 500.348C480.992 500.094 481.613 499.828 482.227 499.539C482.242 499.531 482.254 499.527 482.266 499.523C482.891 499.227 483.504 498.906 484.113 498.574C484.25 498.496 484.391 498.418 484.527 498.34C485.016 498.062 485.496 497.773 485.973 497.473C486.094 497.395 486.219 497.32 486.34 497.242C486.906 496.871 487.461 496.484 488.004 496.082C488.113 496 488.215 495.918 488.32 495.84C488.762 495.5 489.195 495.152 489.621 494.789C489.762 494.672 489.906 494.551 490.043 494.426C490.555 493.977 491.055 493.52 491.535 493.039C498.02 486.555 501.504 477.344 501.449 468.375C501.441 467.32 501.387 466.266 501.281 465.223Z" fill="#CD5954"/>
<path d="M410.187 195.473C429.227 193.867 446.527 183.77 457.289 167.98L481.07 133.086C500.547 104.504 508.199 69.4922 502.418 35.3906C501.473 29.8125 498.648 24.9375 494.648 21.3906C490.648 17.8438 485.469 15.6211 479.816 15.3516C445.27 13.7031 411.422 25.4961 385.383 48.2617L353.594 76.0547C339.207 88.6289 331.258 107.02 331.945 126.113L333.66 156.207C334.449 170.109 329.398 183.711 319.719 193.727L71.4062 448.82C59.4609 461.273 62.3554 483.012 75.2695 494.461C88.1797 505.906 110.113 506.176 121.043 492.824L344.523 215.715C353.309 204.91 366.207 198.262 380.105 197.379L410.187 195.473Z" fill="#E2E2E2"/>
<path d="M502.418 35.3906C501.473 29.8125 498.648 24.9375 494.648 21.3906C493.148 20.0586 491.48 18.9141 489.687 17.9922C487.895 17.0664 485.969 16.3633 483.953 15.9102C482.613 15.6094 481.23 15.418 479.816 15.3516C478.574 15.293 477.332 15.2578 476.094 15.2305C475.719 15.2227 475.344 15.2227 474.969 15.2188C474.082 15.207 473.199 15.207 472.316 15.2149C471.91 15.2149 471.504 15.2227 471.098 15.2266C470.18 15.2461 469.262 15.2735 468.344 15.3047C468.02 15.3203 467.691 15.3281 467.367 15.3438C466.113 15.3985 464.863 15.4688 463.613 15.5625C463.922 42.7852 455.918 69.6445 440.398 92.418L416.617 127.309C408.16 139.715 395.668 148.609 381.469 152.629C370.598 155.707 359.969 159.586 349.902 164.711C340.555 169.469 331.363 174.223 331.25 174.57C331.219 174.672 331.18 174.773 331.148 174.871C330.918 175.551 330.684 176.227 330.426 176.895C330.375 177.031 330.316 177.164 330.262 177.301C330.016 177.93 329.762 178.559 329.488 179.18C329.41 179.352 329.328 179.523 329.25 179.695C328.984 180.273 328.719 180.852 328.434 181.422C328.328 181.633 328.211 181.836 328.105 182.047C327.832 182.574 327.555 183.098 327.262 183.617C327.121 183.867 326.969 184.109 326.824 184.355C326.547 184.828 326.273 185.297 325.98 185.762C325.797 186.051 325.602 186.332 325.41 186.621C325.137 187.031 324.871 187.445 324.582 187.848C324.348 188.184 324.094 188.512 323.848 188.84C323.59 189.188 323.34 189.539 323.074 189.875C322.754 190.281 322.418 190.676 322.086 191.074C321.875 191.328 321.672 191.586 321.453 191.836C320.895 192.48 320.316 193.109 319.719 193.727L71.4062 448.82C59.4609 461.273 62.3554 483.012 75.2695 494.461C88.1797 505.906 110.113 506.176 121.043 492.824L344.523 215.715C353.309 204.91 366.207 198.262 380.105 197.379L410.187 195.473C429.227 193.867 446.527 183.77 457.285 167.98L481.066 133.086C500.547 104.504 508.199 69.4922 502.418 35.3906Z" fill="#CD5954"/>
<path d="M380.59 205.039L410.672 203.133C410.723 203.129 410.777 203.125 410.832 203.121C432.269 201.312 451.512 190.082 463.629 172.301L487.41 137.41C508.109 107.035 516.129 70.3477 509.984 34.1094C508.777 26.9922 505.137 20.4336 499.738 15.6484C494.336 10.8594 487.391 8.03125 480.18 7.6875C443.453 5.92968 408.004 18.293 380.332 42.4844L348.543 70.2773C332.344 84.4375 323.5 104.887 324.273 126.391C324.277 126.441 324.277 126.496 324.281 126.551L325.996 156.641C326.664 168.371 322.363 179.945 314.219 188.375L65.8671 443.508C59.2187 450.441 55.7851 459.953 56.2031 470.293C56.664 481.676 61.8867 492.855 70.1757 500.203C77.664 506.84 87.957 510.621 98.246 510.621C99.3476 510.621 100.449 510.578 101.547 510.488C111.863 509.664 120.898 505.117 127.016 497.641L350.48 220.555C357.891 211.438 368.867 205.781 380.59 205.039ZM338.551 210.898L115.105 487.961C111.691 492.133 106.441 494.703 100.324 495.191C93.0468 495.773 85.5859 493.352 80.3593 488.719C75.1328 484.082 71.8359 476.965 71.5429 469.672C71.2929 463.543 73.2109 458.023 76.9062 454.172L325.238 199.059C336.371 187.539 342.23 171.762 341.324 155.77L339.609 125.758C339.027 108.926 345.961 92.9219 358.644 81.832L390.434 54.0391C415.105 32.4727 446.723 21.4609 479.449 23.0156C483.176 23.1953 486.762 24.6562 489.555 27.1328C492.348 29.6055 494.227 32.9961 494.852 36.6719C500.328 68.9805 493.18 101.684 474.727 128.762L450.945 163.656C441.457 177.578 426.398 186.379 409.617 187.82L379.617 189.719C363.633 190.734 348.672 198.445 338.551 210.898Z" fill="black"/>
<path d="M497.82 441.57L331.301 289.902C328.168 287.047 323.316 287.273 320.457 290.406C317.606 293.539 317.832 298.395 320.965 301.25L487.441 452.883C491.402 456.543 493.648 461.937 493.77 468.07C493.914 475.367 491.051 482.668 486.109 487.609C481.172 492.547 473.883 495.418 466.57 495.27C460.438 495.148 455.043 492.902 451.422 488.984L303.039 326.078C300.184 322.941 295.328 322.719 292.195 325.57C289.063 328.426 288.836 333.281 291.691 336.414L440.109 499.359C446.633 506.414 455.922 510.414 466.27 510.617C466.539 510.621 466.805 510.625 467.074 510.625C478.195 510.625 489.316 506.113 496.961 498.465C504.797 490.629 509.34 479.156 509.113 467.77C508.91 457.422 504.914 448.133 497.82 441.57Z" fill="black"/>
<path d="M92.6094 203.586C105.313 215.289 121.816 221.961 139.082 222.375C139.137 222.379 139.191 222.379 139.242 222.379L169.383 222.473C181.133 222.508 192.426 227.496 200.352 236.133L213.629 250.707C215.145 252.371 217.219 253.215 219.305 253.215C221.148 253.215 223 252.555 224.469 251.215C227.605 248.359 227.832 243.504 224.977 240.371L211.68 225.777C200.852 213.973 185.453 207.176 169.434 207.121L139.375 207.027C126.02 206.688 113.25 201.574 103.355 192.617L16.0078 88.7813C15.1172 87.7188 15.1836 86.1797 16.1641 85.1992C16.836 84.5234 17.625 84.4258 18.0352 84.4258C18.4453 84.4258 19.2344 84.5234 19.9102 85.1992L99.418 164.711C107.277 172.57 120.066 172.57 127.926 164.707L137.27 155.367V155.363L153.859 138.773C153.859 138.773 153.863 138.773 153.863 138.77L153.867 138.766L163.207 129.426C171.066 121.566 171.066 108.777 163.207 100.918L83.6992 21.4102C82.668 20.3789 82.668 18.6953 83.6992 17.6641C84.6797 16.6836 86.2188 16.6172 87.2813 17.5078L191.117 104.859C200.078 114.75 205.191 127.523 205.531 140.875L205.621 170.938C205.676 186.953 212.477 202.352 224.297 213.203L238.523 226.16C241.66 229.016 246.512 228.789 249.367 225.656C252.219 222.52 251.992 217.668 248.859 214.812L234.656 201.875C225.996 193.93 221.012 182.633 220.973 170.887L220.879 140.746C220.879 140.691 220.879 140.637 220.875 140.582C220.461 123.316 213.789 106.813 202.086 94.1094C201.867 93.8711 201.633 93.6445 201.383 93.4336L97.1602 5.76172C89.957 -0.300776 79.5039 0.152349 72.8477 6.8086C65.8281 13.8281 65.8281 25.2461 72.8477 32.2617L152.355 111.773C154.23 113.648 154.23 116.699 152.355 118.574L148.438 122.488L59.8242 33.8789C56.8281 30.8789 51.9688 30.8789 48.9727 33.8789C45.9766 36.875 45.9766 41.7344 48.9727 44.7305L137.586 133.344L131.844 139.082L43.2305 50.4727C40.2344 47.4766 35.375 47.4766 32.3789 50.4727C29.3789 53.4688 29.3789 58.3281 32.3789 61.3242L120.988 149.938L117.074 153.855C115.199 155.73 112.148 155.73 110.273 153.855L30.7617 74.3477C27.3633 70.9492 22.8438 69.0742 18.0352 69.0742C13.2266 69.0742 8.70705 70.9492 5.30861 74.3477C-1.34764 81.0039 -1.79686 91.457 4.26174 98.6641L91.9375 202.883C92.1445 203.133 92.3711 203.367 92.6094 203.586Z" fill="black"/>
</g>
<defs>
<clipPath id="clip0">
<rect width="511.999" height="511" fill="white"/>
</clipPath>
</defs>
</svg>
