<svg width="60" height="54" viewBox="0 0 60 54" fill="none" xmlns="http://www.w3.org/2000/svg">
<path d="M43.3219 33.8398L43.0997 34.2641C42.6421 35.1797 42.0293 35.9133 41.2617 36.4656C40.5077 37.0042 39.6863 37.3543 38.7979 37.5156C38.5553 38.2025 38.2389 38.8419 37.8486 39.4346C37.4716 40.0134 37.034 40.5183 36.5356 40.9494C36.0511 41.3801 35.4989 41.7167 34.8796 41.9592C34.2736 42.2015 33.6139 42.3226 32.9003 42.3226C31.8636 42.3226 30.9276 42.1073 30.0929 41.6762C29.2716 41.2321 28.5713 40.6394 27.9923 39.899C27.4135 39.145 26.9691 38.2699 26.6595 37.2733C26.3497 36.2635 26.1948 35.1862 26.1948 34.0419C26.1948 33.0454 26.3093 32.1434 26.5383 31.3353C26.767 30.5142 27.0565 29.7871 27.4067 29.1542C27.7568 28.5078 28.1471 27.9491 28.5781 27.4778C29.0089 26.993 29.4332 26.5959 29.8504 26.2863C30.2678 25.9763 30.6448 25.7476 30.9817 25.5993C31.3315 25.438 31.5941 25.3571 31.7693 25.3571L32.0317 26.0641C31.4798 26.468 30.9882 27.0335 30.5574 27.7606C30.1804 28.3798 29.8371 29.2012 29.5274 30.2247C29.2311 31.2478 29.0831 32.5203 29.0831 34.0419C29.0831 34.9708 29.1705 35.8732 29.3454 36.7483C29.5206 37.6234 29.7765 38.3975 30.113 39.0709C30.4495 39.7442 30.8602 40.2828 31.3451 40.6867C31.8432 41.0906 32.4022 41.2927 33.0215 41.2927C33.8697 41.2927 34.57 40.9559 35.1219 40.2828C35.6874 39.5959 36.1048 38.6602 36.3743 37.4754C35.6741 37.3271 35.0075 37.0511 34.3747 36.6473C33.7418 36.2434 33.1831 35.7452 32.6983 35.1526C32.2137 34.5469 31.8231 33.8534 31.5268 33.0723C31.244 32.2914 31.1028 31.4431 31.1028 30.5275C31.1028 29.7735 31.197 29.1138 31.3855 28.5483C31.5873 27.9692 31.85 27.4911 32.1732 27.1141C32.4965 26.7238 32.8667 26.4343 33.2841 26.2458C33.7149 26.0437 34.1661 25.9429 34.6373 25.9429C35.1892 25.9429 35.7547 26.1043 36.3338 26.4275C36.9126 26.7371 37.4379 27.2084 37.9092 27.8412C38.3804 28.4608 38.7642 29.2417 39.0603 30.1842C39.3566 31.1267 39.5046 32.224 39.5046 33.4764C39.5046 33.9477 39.4778 34.4121 39.424 34.8698C39.3702 35.3278 39.2893 35.7721 39.1814 36.2029C39.8279 36.0144 40.4135 35.7116 40.9388 35.2941C41.4774 34.8766 41.9218 34.3247 42.2716 33.6378L42.4938 33.2138L43.3219 33.8398ZM32.4356 30.3659C32.4356 31.1604 32.5434 31.8943 32.7588 32.5673C32.9878 33.2271 33.2906 33.813 33.6676 34.3247C34.0446 34.8228 34.4825 35.2403 34.9806 35.5768C35.4788 35.9133 36.0106 36.1491 36.5761 36.2839C36.6435 35.9069 36.6839 35.5163 36.6972 35.1124C36.7241 34.6949 36.7377 34.2706 36.7377 33.8398C36.7377 32.8838 36.6635 32.0222 36.5155 31.2546C36.3675 30.4737 36.1722 29.814 35.9299 29.2754C35.6874 28.7232 35.4046 28.2992 35.0817 28.0029C34.7585 27.7068 34.4284 27.5585 34.0919 27.5585C33.634 27.5585 33.2437 27.8076 32.9204 28.306C32.5972 28.7905 32.4356 29.4772 32.4356 30.3659ZM59.4393 33.8398L59.2171 34.2641C58.7594 35.1797 58.1466 35.9133 57.379 36.4656C56.625 37.0042 55.8037 37.3543 54.915 37.5156C54.6727 38.2025 54.3563 38.8419 53.966 39.4346C53.589 40.0134 53.1511 40.5183 52.653 40.9494C52.1684 41.3801 51.6162 41.7167 50.9969 41.9592C50.391 42.2015 49.7312 42.3226 49.0174 42.3226C47.9806 42.3226 47.0449 42.1073 46.2103 41.6762C45.3889 41.2321 44.6887 40.6394 44.1096 39.899C43.5308 39.145 43.0864 38.2699 42.7765 37.2733C42.4669 36.2635 42.312 35.1862 42.312 34.0419C42.312 33.0454 42.4267 32.1434 42.6554 31.3353C42.8843 30.5142 43.1739 29.7871 43.524 29.1542C43.8741 28.5078 44.2644 27.9491 44.6955 27.4778C45.1263 26.993 45.5502 26.5959 45.9677 26.2863C46.3852 25.9763 46.7622 25.7476 47.0987 25.5993C47.4488 25.438 47.7115 25.3571 47.8864 25.3571L48.1491 26.0641C47.5971 26.468 47.1055 27.0335 46.6747 27.7606C46.2977 28.3798 45.9544 29.2012 45.6445 30.2247C45.3484 31.2478 45.2004 32.5203 45.2004 34.0419C45.2004 34.9708 45.2879 35.8732 45.4628 36.7483C45.638 37.6234 45.8938 38.3975 46.2304 39.0709C46.5669 39.7442 46.9776 40.2828 47.4624 40.6867C47.9605 41.0906 48.5193 41.2927 49.1388 41.2927C49.9871 41.2927 50.6873 40.9559 51.2392 40.2828C51.8047 39.5959 52.2222 38.6602 52.4913 37.4754C51.7914 37.3271 51.1249 37.0511 50.492 36.6473C49.8591 36.2434 49.3004 35.7452 48.8156 35.1526C48.3308 34.5469 47.9405 33.8534 47.6441 33.0723C47.3614 32.2914 47.2201 31.4431 47.2201 30.5275C47.2201 29.7735 47.3144 29.1138 47.5029 28.5483C47.7047 27.9692 47.9673 27.4911 48.2906 27.1141C48.6135 26.7238 48.984 26.4343 49.4012 26.2458C49.8323 26.0437 50.2831 25.9429 50.7544 25.9429C51.3066 25.9429 51.8721 26.1043 52.4512 26.4275C53.03 26.7371 53.5553 27.2084 54.0265 27.8412C54.4978 28.4608 54.8816 29.2417 55.1776 30.1842C55.474 31.1267 55.622 32.224 55.622 33.4764C55.622 33.9477 55.5951 34.4121 55.5413 34.8698C55.4873 35.3278 55.4066 35.7721 55.2988 36.2029C55.9452 36.0144 56.5308 35.7116 57.0561 35.2941C57.5944 34.8766 58.0388 34.3247 58.3889 33.6378L58.6111 33.2138L59.4393 33.8398ZM48.5529 30.3659C48.5529 31.1604 48.6608 31.8943 48.8762 32.5673C49.1051 33.2271 49.408 33.813 49.785 34.3247C50.162 34.8228 50.5995 35.2403 51.098 35.5768C51.5961 35.9133 52.1279 36.1491 52.6934 36.2839C52.7608 35.9069 52.801 35.5163 52.8146 35.1124C52.8415 34.6949 52.855 34.2706 52.855 33.8398C52.855 32.8838 52.7809 32.0222 52.6329 31.2546C52.4848 30.4737 52.2895 29.814 52.047 29.2754C51.8047 28.7232 51.522 28.2992 51.1987 28.0029C50.8758 27.7068 50.5458 27.5585 50.2093 27.5585C49.7513 27.5585 49.361 27.8076 49.0378 28.306C48.7145 28.7905 48.5529 29.4772 48.5529 30.3659Z" fill="white"/>
<path d="M0.00780769 20.5679C-0.0444287 20.2473 0.170958 19.9333 0.488896 19.8666L26.2703 14.4592C27.86 14.1258 29.3606 15.1551 29.6217 16.7582L2.68891 22.4072C1.41716 22.6739 0.216783 21.8504 0.00780769 20.5679Z" fill="white"/>
<path d="M20.1233 1.44247C21.2575 0.081221 23.1806 -0.365093 24.8179 0.312089C-4.70497 27.7289 39.7479 27.6217 10.3972 50.7005C7.53177 52.9537 3.68407 53.5762 0.172119 52.5997C39.6067 33.3884 -5.36744 32.0364 20.1233 1.44247Z" fill="white"/>
</svg>
